<svg width="62" height="63" viewBox="0 0 62 63" fill="none" xmlns="http://www.w3.org/2000/svg">
<g clip-path="url(#clip0_98_418)">
<rect x="11.7754" y="12.6992" width="37.8227" height="31.416" fill="white"/>
<path d="M9.19667 54.9488H45.5895L43.8514 49.321L48.0091 52.8891L51.8196 56.304L58.7618 62.1053V7.1677C58.5882 3.75276 55.648 0.85083 52.0034 0.85083L9.20944 0.858487C5.56735 0.858487 2.61182 3.76552 2.61182 7.18046V48.6293C2.61182 52.2306 5.56224 54.9488 9.19667 54.9488ZM36.118 15.3554L36.0338 15.386L36.0644 15.3554H36.118ZM16.6416 18.5942C21.32 15.1895 25.6563 15.3528 25.6563 15.3528L26.0059 15.6974C20.2812 17.0629 17.6855 19.6202 17.6855 19.6202C17.6855 19.6202 18.3797 19.2808 19.5921 18.7627C27.3025 15.7306 35.7224 15.9501 43.5171 19.7887C43.5171 19.7887 40.9163 17.3972 35.5438 15.8658L36.0185 15.3988C36.7612 15.4013 40.6917 15.5391 44.8978 18.6146C44.8978 18.6146 49.6042 26.6543 49.6042 36.5316C49.4485 36.3427 46.6844 40.7837 39.5712 40.9368C39.5712 40.9368 38.3666 39.5739 37.509 38.3845C41.6692 37.1901 43.2261 34.8011 43.2261 34.8011C41.8606 35.6613 40.6151 36.1717 39.6044 36.6822C38.0501 37.3662 36.4932 37.7031 34.9389 38.0476C27.5781 39.2421 23.446 37.2437 19.541 35.6587L18.2062 34.9798C18.2062 34.9798 19.7605 37.3687 23.7548 38.5632C22.7058 39.7602 21.6671 41.1206 21.6671 41.1206C14.5564 40.9521 11.9633 36.5112 11.9633 36.5112C11.9633 26.6186 16.6416 18.5942 16.6416 18.5942Z" fill="black"/>
<path d="M36.5776 33.4459C38.3922 33.4459 39.87 31.9145 39.87 30.0258C39.87 28.1499 38.3999 26.6185 36.5776 26.6185V26.6262C34.7706 26.6262 33.2903 28.1524 33.2852 30.0411C33.2852 31.9145 34.7629 33.4459 36.5776 33.4459Z" fill="black"/>
<path d="M24.791 33.4459C26.6056 33.4459 28.0834 31.9145 28.0834 30.0258C28.0834 28.1499 26.6158 26.6185 24.8012 26.6185L24.791 26.6262C22.9763 26.6262 21.4985 28.1524 21.4985 30.0411C21.4985 31.9145 22.9763 33.4459 24.791 33.4459Z" fill="black"/>
</g>
<defs>
<clipPath id="clip0_98_418">
<rect width="61.2545" height="61.2545" fill="white" transform="translate(0.0595703 0.85083)"/>
</clipPath>
</defs>
</svg>
