<svg width="57" height="57" viewBox="0 0 57 57" fill="none" xmlns="http://www.w3.org/2000/svg">
<mask id="path-1-inside-1_98_430" fill="white">
<path d="M0.684082 7.85083C0.684082 3.98484 3.81809 0.85083 7.68408 0.85083H49.834C53.7 0.85083 56.834 3.98484 56.834 7.85083V50.0007C56.834 53.8667 53.7 57.0007 49.834 57.0007H7.68408C3.81809 57.0007 0.684082 53.8667 0.684082 50.0007V7.85083Z"/>
</mask>
<path d="M7.68408 11.8508H49.834V-10.1492H7.68408V11.8508ZM45.834 7.85083V50.0007H67.834V7.85083H45.834ZM49.834 46.0007H7.68408V68.0007H49.834V46.0007ZM11.6841 50.0007V7.85083H-10.3159V50.0007H11.6841ZM7.68408 46.0007C9.89322 46.0007 11.6841 47.7916 11.6841 50.0007H-10.3159C-10.3159 59.9419 -2.25705 68.0007 7.68408 68.0007V46.0007ZM45.834 50.0007C45.834 47.7916 47.6248 46.0007 49.834 46.0007V68.0007C59.7751 68.0007 67.834 59.9419 67.834 50.0007H45.834ZM49.834 11.8508C47.6248 11.8508 45.834 10.06 45.834 7.85083H67.834C67.834 -2.09029 59.7751 -10.1492 49.834 -10.1492V11.8508ZM7.68408 -10.1492C-2.25704 -10.1492 -10.3159 -2.0903 -10.3159 7.85083H11.6841C11.6841 10.06 9.89322 11.8508 7.68408 11.8508V-10.1492Z" fill="black" mask="url(#path-1-inside-1_98_430)"/>
<rect x="9.77344" y="8.11194" width="39.3869" height="41.9009" fill="white"/>
<path d="M37.6493 13.9794H21.3279C17.7752 13.9794 14.8853 16.8965 14.8853 20.4825V36.9571C14.8853 40.5432 17.7752 43.4603 21.3279 43.4603H37.6493C41.202 43.4603 44.092 40.5432 44.092 36.9571V20.4825C44.092 16.8965 41.202 13.9794 37.6493 13.9794ZM29.4886 36.8489C25.048 36.8489 21.4353 33.2022 21.4353 28.7199C21.4353 24.2376 25.048 20.5909 29.4886 20.5909C33.9292 20.5909 37.542 24.2376 37.542 28.7199C37.542 33.2022 33.9292 36.8489 29.4886 36.8489ZM38.7231 21.0245C37.8334 21.0245 37.1124 20.2967 37.1124 19.3987C37.1124 18.5007 37.8334 17.7729 38.7231 17.7729C39.6127 17.7729 40.3337 18.5007 40.3337 19.3987C40.3337 20.2967 39.6127 21.0245 38.7231 21.0245Z" fill="black"/>
<path d="M42.4815 2H16.496C8.50307 2 2 8.44265 2 16.3613V42.1054C2 50.024 8.50307 56.4667 16.496 56.4667H42.4815C50.4744 56.4667 56.9774 50.024 56.9774 42.1054V16.3613C56.9774 8.44265 50.4744 2 42.4815 2ZM47.3134 37.3181C47.3134 42.5973 42.978 46.8924 37.6493 46.8924H21.328C15.9994 46.8924 11.664 42.5973 11.664 37.3181V21.1484C11.664 15.8693 15.9994 11.5742 21.328 11.5742H37.6493C42.978 11.5742 47.3134 15.8693 47.3134 21.1484V37.3181Z" fill="black"/>
<path d="M34.3206 28.7199C34.3206 31.4136 32.1572 33.5972 29.4887 33.5972C26.8201 33.5972 24.6567 31.4136 24.6567 28.7199C24.6567 26.0263 26.8201 23.8427 29.4887 23.8427C32.1572 23.8427 34.3206 26.0263 34.3206 28.7199Z" fill="black"/>
</svg>
