<svg width="57" height="57" viewBox="0 0 57 57" fill="none" xmlns="http://www.w3.org/2000/svg">
<mask id="path-1-inside-1_98_445" fill="white">
<path d="M0.620605 7.34228C0.620605 3.47629 3.75461 0.342285 7.62061 0.342285H49.7705C53.6365 0.342285 56.7705 3.47629 56.7705 7.34229V49.4922C56.7705 53.3582 53.6365 56.4922 49.7705 56.4922H7.6206C3.75461 56.4922 0.620605 53.3582 0.620605 49.4922V7.34228Z"/>
</mask>
<path d="M7.62061 11.3423H49.7705V-10.6577H7.62061V11.3423ZM45.7705 7.34229V49.4922H67.7705V7.34229H45.7705ZM49.7705 45.4922H7.6206V67.4922H49.7705V45.4922ZM11.6206 49.4922V7.34228H-10.3794V49.4922H11.6206ZM7.6206 45.4922C9.82975 45.4922 11.6206 47.2831 11.6206 49.4922H-10.3794C-10.3794 59.4333 -2.32052 67.4922 7.6206 67.4922V45.4922ZM45.7705 49.4922C45.7705 47.283 47.5614 45.4922 49.7705 45.4922V67.4922C59.7116 67.4922 67.7705 59.4333 67.7705 49.4922H45.7705ZM49.7705 11.3423C47.5614 11.3423 45.7705 9.55142 45.7705 7.34229H67.7705C67.7705 -2.59884 59.7116 -10.6577 49.7705 -10.6577V11.3423ZM7.62061 -10.6577C-2.32052 -10.6577 -10.3794 -2.59884 -10.3794 7.34228H11.6206C11.6206 9.55142 9.82974 11.3423 7.62061 11.3423V-10.6577Z" fill="black" mask="url(#path-1-inside-1_98_445)"/>
<g clip-path="url(#clip0_98_445)">
<rect x="10.7954" y="8" width="34.5212" height="39.916" rx="7" fill="white"/>
<path fill-rule="evenodd" clip-rule="evenodd" d="M28.5 59.0779C43.6878 59.0779 56 46.5084 56 31.0029C56 15.4974 43.6878 2.92798 28.5 2.92798C13.3122 2.92798 1 15.4974 1 31.0029C1 46.5084 13.3122 59.0779 28.5 59.0779ZM24.3237 40.0913C23.6483 40.0915 22.9831 39.9237 22.3857 39.602C21.8712 38.8782 21.5948 38.008 21.5947 37.1149C21.5958 35.9843 22.0362 34.9003 22.8193 34.1007C23.6024 33.3012 24.6643 32.8513 25.7717 32.8498C26.2021 32.8498 26.6146 32.9226 27.0042 33.0475V27.8683C26.5959 27.8094 26.1842 27.7787 25.7717 27.7766C25.7481 27.7766 25.7245 27.777 25.701 27.7776L25.6421 27.7799L25.5562 27.7823V26.5811C25.1478 26.5222 24.7361 26.4915 24.3237 26.4895C19.2804 26.4895 15.1773 30.679 15.1773 35.8277C15.1773 38.9862 16.7235 41.7821 19.0821 43.4726L19.084 43.474C19.9376 44.4133 20.9718 45.1625 22.1222 45.6748C23.2734 46.1876 24.5159 46.4523 25.7717 46.4519C30.815 46.4519 34.9181 42.263 34.9181 37.1151V26.8054C36.9322 28.2841 39.3509 29.078 41.8316 29.0753V24.0012C41.3342 24.0012 40.8506 23.9467 40.3828 23.8445V22.7147C39.0463 22.7159 37.7386 22.3191 36.6197 21.5731L36.6183 21.5713C35.5215 20.2902 34.9174 18.6462 34.9181 16.9446L33.5868 16.9438C33.5091 16.5193 33.4698 16.0885 33.4694 15.6567H28.5006L28.4924 35.9879C28.4095 38.2646 26.5731 40.0913 24.3237 40.0913Z" fill="black"/>
</g>
<defs>
<clipPath id="clip0_98_445">
<rect width="55" height="56.1499" fill="white" transform="translate(1)"/>
</clipPath>
</defs>
</svg>
