<svg width="110" height="97" viewBox="0 0 110 97" fill="none" xmlns="http://www.w3.org/2000/svg">
<g filter="url(#filter0_d_98_388)">
<path d="M103.471 48.7026C105.814 46.3595 105.814 42.5605 103.471 40.2173L65.2868 2.03355C62.9436 -0.309593 59.1447 -0.309593 56.8015 2.03355C54.4584 4.3767 54.4584 8.17569 56.8015 10.5188L90.7426 44.46L56.8015 78.4011C54.4584 80.7442 54.4584 84.5432 56.8015 86.8864C59.1447 89.2295 62.9436 89.2295 65.2868 86.8864L103.471 48.7026ZM4.22266 50.46H99.2279V38.46H4.22266V50.46Z" fill="url(#paint0_linear_98_388)"/>
<path d="M103.471 48.7026C105.814 46.3595 105.814 42.5605 103.471 40.2173L65.2868 2.03355C62.9436 -0.309593 59.1447 -0.309593 56.8015 2.03355C54.4584 4.3767 54.4584 8.17569 56.8015 10.5188L90.7426 44.46L56.8015 78.4011C54.4584 80.7442 54.4584 84.5432 56.8015 86.8864C59.1447 89.2295 62.9436 89.2295 65.2868 86.8864L103.471 48.7026ZM4.22266 50.46H99.2279V38.46H4.22266V50.46Z" fill="white"/>
</g>
<defs>
<filter id="filter0_d_98_388" x="0.222656" y="0.276367" width="109.005" height="96.3672" filterUnits="userSpaceOnUse" color-interpolation-filters="sRGB">
<feFlood flood-opacity="0" result="BackgroundImageFix"/>
<feColorMatrix in="SourceAlpha" type="matrix" values="0 0 0 0 0 0 0 0 0 0 0 0 0 0 0 0 0 0 127 0" result="hardAlpha"/>
<feOffset dy="4"/>
<feGaussianBlur stdDeviation="2"/>
<feComposite in2="hardAlpha" operator="out"/>
<feColorMatrix type="matrix" values="0 0 0 0 0 0 0 0 0 0 0 0 0 0 0 0 0 0 0.25 0"/>
<feBlend mode="normal" in2="BackgroundImageFix" result="effect1_dropShadow_98_388"/>
<feBlend mode="normal" in="SourceGraphic" in2="effect1_dropShadow_98_388" result="shape"/>
</filter>
<linearGradient id="paint0_linear_98_388" x1="23.5039" y1="35.9497" x2="91.458" y2="53.3334" gradientUnits="userSpaceOnUse">
<stop stop-color="#9CF4FE"/>
<stop offset="1" stop-color="#FCD3FF"/>
</linearGradient>
</defs>
</svg>
