<svg width="150" height="17" viewBox="0 0 150 17" fill="none" xmlns="http://www.w3.org/2000/svg">
<path d="M4.9671 10.2114C4.74043 10.2114 4.56043 10.1248 4.4271 9.95143C4.3071 9.76476 4.2471 9.5181 4.2471 9.21143C4.2471 8.53143 4.5271 8.19143 5.0871 8.19143H7.2071C7.70043 8.19143 8.0471 8.05143 8.2471 7.77143C8.46043 7.49143 8.5671 7.18476 8.5671 6.85143V3.57143C8.5671 3.2381 8.46043 2.93143 8.2471 2.65143C8.0471 2.37143 7.70043 2.23143 7.2071 2.23143H3.0071V15.2914C3.0071 15.9314 2.6071 16.2514 1.8071 16.2514C1.03377 16.2514 0.6471 15.9314 0.6471 15.2914V1.41143C0.6471 0.93143 0.7671 0.61143 1.0071 0.451429C1.2471 0.29143 1.54043 0.21143 1.8871 0.21143H7.7271C8.06043 0.21143 8.41377 0.284763 8.7871 0.43143C9.16043 0.578097 9.52043 0.764763 9.8671 0.99143H9.8471C10.1938 1.24476 10.4604 1.5781 10.6471 1.99143C10.8338 2.39143 10.9271 2.8581 10.9271 3.39143V7.01143C10.9271 8.09143 10.5671 8.8981 9.8471 9.43143C9.50043 9.68476 9.1471 9.8781 8.7871 10.0114C8.4271 10.1448 8.07377 10.2114 7.7271 10.2114H4.9671ZM19.6269 9.51143H18.0869C17.8603 9.51143 17.6803 9.42476 17.5469 9.25143C17.4269 9.06476 17.3669 8.8181 17.3669 8.51143C17.3669 7.83143 17.6469 7.49143 18.2069 7.49143H20.5469C21.0403 7.49143 21.3869 7.35143 21.5869 7.07143C21.7869 6.79143 21.8869 6.48476 21.8869 6.15143V3.57143C21.8869 3.2381 21.7869 2.93143 21.5869 2.65143C21.3869 2.37143 21.0403 2.23143 20.5469 2.23143H16.3269V15.2714C16.3269 15.9114 15.9336 16.2314 15.1469 16.2314C14.3603 16.2314 13.9669 15.9114 13.9669 15.2714V1.41143C13.9669 0.93143 14.0869 0.61143 14.3269 0.451429C14.5803 0.29143 14.8803 0.21143 15.2269 0.21143H21.0469C21.3936 0.21143 21.7536 0.284763 22.1269 0.43143C22.5003 0.578097 22.8603 0.764763 23.2069 0.99143H23.1869C23.5336 1.24476 23.8003 1.5781 23.9869 1.99143C24.1736 2.39143 24.2669 2.8581 24.2669 3.39143V6.31143C24.2669 7.39143 23.9069 8.1981 23.1869 8.73143C23.0403 8.8381 22.8803 8.9381 22.7069 9.03143C22.5469 9.12476 22.3803 9.2181 22.2069 9.31143L25.4069 14.5914C25.4469 14.6581 25.4869 14.7448 25.5269 14.8514C25.5669 14.9581 25.5869 15.0448 25.5869 15.1114C25.5869 15.4314 25.3603 15.7381 24.9069 16.0314V16.0114C24.6003 16.1981 24.3403 16.2914 24.1269 16.2914C23.8203 16.2914 23.5736 16.1381 23.3869 15.8314L23.4069 15.8514L19.6269 9.51143ZM35.0035 0.21143C35.3502 0.21143 35.7102 0.284763 36.0835 0.43143C36.4568 0.578097 36.8168 0.764763 37.1635 0.99143H37.1435C37.4902 1.24476 37.7568 1.5781 37.9435 1.99143C38.1302 2.39143 38.2235 2.8581 38.2235 3.39143V12.8914C38.2235 13.9714 37.8635 14.7781 37.1435 15.3114C36.7968 15.5648 36.4368 15.7648 36.0635 15.9114C35.7035 16.0448 35.3502 16.1114 35.0035 16.1114H30.6435C30.2968 16.1114 29.9368 16.0448 29.5635 15.9114C29.2035 15.7648 28.8502 15.5648 28.5035 15.3114C28.1568 15.0448 27.8902 14.7181 27.7035 14.3314C27.5168 13.9314 27.4235 13.4514 27.4235 12.8914V3.39143C27.4235 2.8581 27.5168 2.39143 27.7035 1.99143C27.8902 1.5781 28.1568 1.24476 28.5035 0.99143H28.4835C28.8302 0.764763 29.1902 0.578097 29.5635 0.43143C29.9368 0.284763 30.2968 0.21143 30.6435 0.21143H35.0035ZM34.5035 14.0914C34.9968 14.0914 35.3435 13.9514 35.5435 13.6714C35.7435 13.3914 35.8435 13.0781 35.8435 12.7314V3.57143C35.8435 3.2381 35.7435 2.93143 35.5435 2.65143C35.3435 2.37143 34.9968 2.23143 34.5035 2.23143H31.1435C30.6502 2.23143 30.3035 2.37143 30.1035 2.65143C29.9035 2.93143 29.8035 3.2381 29.8035 3.57143V12.7314C29.8035 13.0781 29.9035 13.3914 30.1035 13.6714C30.3035 13.9514 30.6502 14.0914 31.1435 14.0914H34.5035ZM48.8321 12.8914C48.8321 13.9714 48.4721 14.7781 47.7521 15.3114C47.4054 15.5648 47.0454 15.7648 46.6721 15.9114C46.3121 16.0448 45.9588 16.1114 45.6121 16.1114H43.6921C43.3454 16.1114 42.9854 16.0448 42.6121 15.9114C42.2521 15.7648 41.8988 15.5648 41.5521 15.3114C40.8454 14.7914 40.4921 13.9848 40.4921 12.8914V11.5714C40.4921 10.9448 40.8788 10.6314 41.6521 10.6314C42.4521 10.6314 42.8521 10.9448 42.8521 11.5714V12.7314C42.8521 13.0781 42.9521 13.3914 43.1521 13.6714C43.3521 13.9514 43.6988 14.0914 44.1921 14.0914H45.1121C45.6054 14.0914 45.9521 13.9514 46.1521 13.6714C46.3521 13.3914 46.4521 13.0781 46.4521 12.7314V1.07143C46.4521 0.43143 46.8454 0.11143 47.6321 0.11143C48.4321 0.11143 48.8321 0.43143 48.8321 1.07143V12.8914ZM53.3329 16.1114C52.8395 16.1114 52.5062 15.9848 52.3329 15.7314C52.1595 15.4781 52.0729 15.1981 52.0729 14.8914V1.41143C52.0729 1.10476 52.1595 0.83143 52.3329 0.59143C52.5062 0.338097 52.8395 0.21143 53.3329 0.21143H60.2929C60.7862 0.21143 61.0462 0.544763 61.0729 1.21143C61.0995 1.89143 60.8395 2.23143 60.2929 2.23143H54.4329V14.0914H60.6529C61.1462 14.0914 61.3995 14.4181 61.4129 15.0714C61.4395 15.7648 61.1862 16.1114 60.6529 16.1114H53.3329ZM59.5529 7.83143C59.5529 8.2981 59.3862 8.69143 59.0529 9.01143C58.7329 9.33143 58.3395 9.49143 57.8729 9.49143C57.4195 9.49143 57.0329 9.33143 56.7129 9.01143C56.3929 8.69143 56.2329 8.2981 56.2329 7.83143C56.2329 7.36476 56.3929 6.97143 56.7129 6.65143C57.0329 6.33143 57.4195 6.17143 57.8729 6.17143C58.3395 6.17143 58.7329 6.33143 59.0529 6.65143C59.3862 6.97143 59.5529 7.36476 59.5529 7.83143ZM74.3563 12.8914C74.3563 13.9714 73.9963 14.7781 73.2763 15.3114C72.9297 15.5648 72.5697 15.7648 72.1963 15.9114C71.8363 16.0448 71.483 16.1114 71.1363 16.1114H66.7763C66.4297 16.1114 66.0697 16.0448 65.6963 15.9114C65.3363 15.7648 64.983 15.5648 64.6363 15.3114C64.2897 15.0448 64.023 14.7181 63.8363 14.3314C63.6497 13.9314 63.5563 13.4514 63.5563 12.8914V3.39143C63.5563 2.8581 63.6497 2.39143 63.8363 1.99143C64.023 1.5781 64.2897 1.24476 64.6363 0.99143H64.6163C64.963 0.764763 65.323 0.578097 65.6963 0.43143C66.0697 0.284763 66.4297 0.21143 66.7763 0.21143H71.1363C71.483 0.21143 71.843 0.284763 72.2163 0.43143C72.5897 0.578097 72.9497 0.764763 73.2963 0.99143H73.2763C73.623 1.24476 73.8897 1.5781 74.0763 1.99143C74.263 2.39143 74.3563 2.8581 74.3563 3.39143V4.77143C74.3563 5.41143 73.9563 5.73143 73.1563 5.73143C72.3697 5.73143 71.9763 5.41143 71.9763 4.77143V3.57143C71.9763 3.2381 71.8763 2.93143 71.6763 2.65143C71.4763 2.37143 71.1297 2.23143 70.6363 2.23143H67.2763C66.783 2.23143 66.4363 2.37143 66.2363 2.65143C66.0363 2.93143 65.9363 3.2381 65.9363 3.57143V12.7314C65.9363 13.0781 66.0363 13.3914 66.2363 13.6714C66.4363 13.9514 66.783 14.0914 67.2763 14.0914H70.6363C71.1297 14.0914 71.4763 13.9514 71.6763 13.6714C71.8763 13.3914 71.9763 13.0781 71.9763 12.7314V11.5714C71.9763 10.9448 72.3697 10.6314 73.1563 10.6314C73.9563 10.6314 74.3563 10.9448 74.3563 11.5714V12.8914ZM82.5882 15.2914C82.5882 15.9314 82.1882 16.2514 81.3882 16.2514C80.6015 16.2514 80.2082 15.9314 80.2082 15.2914V2.23143H76.7082C76.2282 2.23143 75.9749 1.89143 75.9482 1.21143C75.9482 0.544763 76.2015 0.21143 76.7082 0.21143H86.0882C86.5949 0.21143 86.8349 0.544763 86.8082 1.21143C86.8082 1.89143 86.5682 2.23143 86.0882 2.23143H82.5882V15.2914ZM103.452 1.07143C103.452 0.43143 103.845 0.11143 104.632 0.11143C105.419 0.11143 105.812 0.43143 105.812 1.07143V14.8714C105.812 15.3381 105.565 15.6781 105.072 15.8914H105.092C104.879 15.9848 104.652 16.0581 104.412 16.1114C104.172 16.1648 103.939 16.1914 103.712 16.1914C103.539 16.1914 103.359 16.1714 103.172 16.1314C102.985 16.1048 102.805 16.0581 102.632 15.9914C102.472 15.9114 102.319 15.8114 102.172 15.6914C102.039 15.5581 101.932 15.3981 101.852 15.2114L97.5119 4.39143L96.9719 4.45143V15.2514C96.9719 15.8914 96.5719 16.2114 95.7719 16.2114C94.9853 16.2114 94.5919 15.8914 94.5919 15.2514V1.47143C94.5919 0.924764 94.8319 0.558097 95.3119 0.37143C95.7519 0.198097 96.2186 0.11143 96.7119 0.11143C97.0586 0.11143 97.4053 0.184763 97.7519 0.33143C98.1119 0.464763 98.3853 0.724763 98.5719 1.11143L102.892 11.9514L103.452 11.8914V1.07143ZM114.051 2.17143L109.671 15.6114V15.5914C109.591 15.7914 109.478 15.9581 109.331 16.0914C109.198 16.2114 109.031 16.2714 108.831 16.2714C108.724 16.2714 108.618 16.2581 108.511 16.2314C108.418 16.2181 108.318 16.1981 108.211 16.1714H108.231C107.471 15.9314 107.191 15.5048 107.391 14.8914L111.951 1.03143C112.018 0.818096 112.131 0.638096 112.291 0.49143C112.464 0.344764 112.664 0.258097 112.891 0.23143C113.118 0.19143 113.338 0.164763 113.551 0.15143C113.764 0.124763 113.931 0.11143 114.051 0.11143C114.171 0.11143 114.338 0.124763 114.551 0.15143C114.764 0.164763 114.984 0.184763 115.211 0.21143C115.398 0.238096 115.578 0.338096 115.751 0.51143C115.938 0.684763 116.078 0.858097 116.171 1.03143C116.918 3.32476 117.671 5.6381 118.431 7.97143C119.204 10.2914 119.964 12.5981 120.711 14.8914C120.898 15.5048 120.618 15.9314 119.871 16.1714C119.764 16.1981 119.664 16.2181 119.571 16.2314C119.491 16.2581 119.398 16.2714 119.291 16.2714C119.104 16.2714 118.931 16.2114 118.771 16.0914C118.624 15.9581 118.518 15.7914 118.451 15.5914V15.6114L114.051 2.17143ZM115.551 11.2914C115.551 11.7181 115.398 12.0848 115.091 12.3914C114.798 12.6848 114.438 12.8314 114.011 12.8314C113.584 12.8314 113.224 12.6848 112.931 12.3914C112.638 12.0848 112.491 11.7181 112.491 11.2914C112.491 10.8648 112.638 10.5048 112.931 10.2114C113.224 9.90476 113.584 9.75143 114.011 9.75143C114.438 9.75143 114.798 9.90476 115.091 10.2114C115.398 10.5048 115.551 10.8648 115.551 11.2914ZM134.762 0.11143C135.189 0.11143 135.655 0.21143 136.162 0.41143C136.629 0.598097 136.862 0.95143 136.862 1.47143V15.2514C136.862 15.8914 136.469 16.2114 135.682 16.2114C134.895 16.2114 134.502 15.8914 134.502 15.2514V4.97143L133.922 4.91143L133.122 7.51143L130.722 15.5114C130.575 15.9781 130.215 16.2048 129.642 16.1914C129.389 16.1781 129.169 16.1114 128.982 15.9914C128.795 15.8714 128.669 15.6981 128.602 15.4714L127.162 10.8114C126.869 9.89143 126.575 8.9581 126.282 8.01143C125.989 7.05143 125.669 5.99143 125.322 4.83143L124.742 4.91143V15.2514C124.742 15.8914 124.349 16.2114 123.562 16.2114C122.775 16.2114 122.382 15.8914 122.382 15.2514V1.47143C122.382 0.964763 122.615 0.61143 123.082 0.41143C123.575 0.21143 124.049 0.118097 124.502 0.13143C124.702 0.13143 124.909 0.158097 125.122 0.21143C125.335 0.264764 125.535 0.344763 125.722 0.451429C125.909 0.544763 126.075 0.67143 126.222 0.83143C126.369 0.978097 126.482 1.15143 126.562 1.35143L129.702 12.0514C129.929 11.2648 130.169 10.4114 130.422 9.49143C130.675 8.57143 130.935 7.6381 131.202 6.69143C131.469 5.74476 131.729 4.81143 131.982 3.89143C132.249 2.9581 132.495 2.09143 132.722 1.29143C132.802 1.10476 132.915 0.938097 133.062 0.79143C133.209 0.644763 133.375 0.524763 133.562 0.43143C133.749 0.324764 133.942 0.244764 134.142 0.19143C134.355 0.138097 134.562 0.11143 134.762 0.11143ZM140.97 16.1114C140.476 16.1114 140.143 15.9848 139.97 15.7314C139.796 15.4781 139.71 15.1981 139.71 14.8914V1.41143C139.71 1.10476 139.796 0.83143 139.97 0.59143C140.143 0.338097 140.476 0.21143 140.97 0.21143H147.93C148.423 0.21143 148.683 0.544763 148.71 1.21143C148.736 1.89143 148.476 2.23143 147.93 2.23143H142.07V14.0914H148.29C148.783 14.0914 149.036 14.4181 149.05 15.0714C149.076 15.7648 148.823 16.1114 148.29 16.1114H140.97ZM147.19 7.83143C147.19 8.2981 147.023 8.69143 146.69 9.01143C146.37 9.33143 145.976 9.49143 145.51 9.49143C145.056 9.49143 144.67 9.33143 144.35 9.01143C144.03 8.69143 143.87 8.2981 143.87 7.83143C143.87 7.36476 144.03 6.97143 144.35 6.65143C144.67 6.33143 145.056 6.17143 145.51 6.17143C145.976 6.17143 146.37 6.33143 146.69 6.65143C147.023 6.97143 147.19 7.36476 147.19 7.83143Z" fill="black"/>
</svg>
